<?xml version="1.0" encoding="UTF-8"?>
<svg id="Layer_2" data-name="Layer 2" xmlns="http://www.w3.org/2000/svg" viewBox="0 0 613.4 163.83">
  <defs>
    <style>
      .cls-1 {
        fill: #3dae2b;
      }

      .cls-1, .cls-2 {
        stroke-width: 0px;
      }

      .cls-2 {
        fill: #0068c7;
      }
    </style>
  </defs>
  <g id="Layer_1-2" data-name="Layer 1">
    <g>
      <path class="cls-1" d="m10.11,84.7l-8.28,8.28c-2.44,2.44-2.44,6.45,0,8.89,2.44,2.44,6.45,2.44,8.89,0h0l8.28-8.28-8.89-8.89Z"/>
      <path class="cls-1" d="m153.89,79.12l8.28-8.28c2.44-2.44,2.44-6.45,0-8.89-2.44-2.44-6.45-2.44-8.89,0h0l-8.28,8.28,8.89,8.89Z"/>
      <path class="cls-2" d="m54.46,123.57l38.43,38.43c2.44,2.44,6.45,2.44,8.89,0,2.44-2.44,2.44-6.45,0-8.89h0l-38.43-38.43-8.89,8.89Z"/>
      <path class="cls-2" d="m109.45,40.26L71.02,1.83c-2.44-2.44-6.45-2.44-8.89,0-2.44,2.44-2.44,6.45,0,8.89h0l38.43,38.43,8.89-8.89Z"/>
      <rect class="cls-1" x="19.4" y="45.42" width="64.75" height="12.55" transform="translate(-21.39 51.75) rotate(-45)"/>
      <rect class="cls-1" x="79.58" y="105.65" width="64.75" height="12.55" transform="translate(-46.35 111.94) rotate(-45)"/>
      <rect class="cls-2" x="75.44" y="49.27" width="12.55" height="64.75" transform="translate(-33.8 81.69) rotate(-45)"/>
      <path class="cls-1" d="m109.97,23.7h0c2.79,2.79,4.36,6.62,4.36,10.63s-1.57,7.84-4.36,10.63l-25.27,25.27,8.89,8.89,22.92-22.92c.09-.09.17-.26.35-.35l2.09-2.09c5.23-5.23,8.02-12.11,8.02-19.52s-2.88-14.2-8.1-19.43-12.11-8.02-19.52-8.02c-5.05,0-9.85,1.31-14.03,3.83l9.5,9.41c5.14-1.66,11.07-.44,15.16,3.66Z"/>
      <path class="cls-2" d="m23.88,53.94h0c-2.79,2.79-4.36,6.62-4.36,10.63s1.57,7.84,4.36,10.63l25.27,25.27-8.89,8.89-22.92-22.92c-.09-.09-.17-.26-.35-.35l-2.09-2.09c-5.23-5.23-8.02-12.11-8.02-19.52s2.88-14.29,8.02-19.52c5.23-5.23,12.11-8.02,19.52-8.02,5.05,0,9.85,1.31,14.03,3.83l-9.41,9.5c-5.14-1.66-11.07-.44-15.16,3.66Z"/>
      <path class="cls-2" d="m140.21,110.06h0c2.79-2.79,4.36-6.62,4.36-10.63s-1.57-7.84-4.36-10.63l-25.27-25.27,8.89-8.89,22.92,22.92c.09.09.17.26.35.35l2.09,2.09c5.23,5.23,8.02,12.11,8.02,19.52s-2.88,14.29-8.02,19.52c-5.23,5.23-12.11,8.02-19.52,8.02-5.05,0-9.85-1.31-14.03-3.83l9.41-9.41c5.14,1.57,11.07.35,15.16-3.75Z"/>
      <path class="cls-1" d="m53.94,140.12c-2.79-2.79-4.36-6.62-4.36-10.63s1.57-7.84,4.36-10.63l25.18-25.18-8.89-8.89-22.83,22.83c-.09.09-.26.26-.35.35l-2.09,2.09c-5.23,5.23-8.02,12.11-8.02,19.52s2.88,14.29,8.02,19.52h0c5.23,5.23,12.11,8.02,19.52,8.02,4.97,0,9.76-1.31,13.94-3.75l-9.41-9.59c-5.14,1.57-10.98.35-15.08-3.66Z"/>
    </g>
    <path class="cls-2" d="m197.25,29.79h13.17v23.44h34.81v12.44h-34.81v44c0,14.97,6.67,19.48,16.77,19.48,7.21,0,14.79-1.8,19.84-4.15l1.98,12.44c-5.77,2.52-13.71,4.15-21.82,4.15-17.49,0-29.94-8.12-29.94-31.92V29.79Z"/>
    <path class="cls-2" d="m265.67,56.84c5.77-2.71,16.59-4.87,27.23-4.87,6.85,0,12.62.72,17.31,2.16l-2.52,12.26c-2.71-1.08-8.12-1.98-14.43-1.98-7.39,0-11.36.9-14.43,2.34v73.4h-13.17V56.84Z"/>
    <path class="cls-2" d="m384.15,136.55c-8.12,2.88-20.92,5.05-33,5.05-20.92,0-34.81-7.03-34.81-26.69s13.89-26.87,37.51-26.87h17.13v-8.48c0-11.9-8.29-15.69-22-15.69-10.1,0-18.39,1.8-23.8,3.79l-1.98-12.08c7.03-1.98,15.87-3.79,26.33-3.79,19.84,0,34.63,7.21,34.63,28.85v55.91Zm-13.17-38.05h-16.95c-16.05,0-24.53,3.97-24.53,16.23s8.48,15.51,21.28,15.51c6.31,0,14.61-.72,20.2-2.52v-29.22Z"/>
    <path class="cls-2" d="m403.6,57.92c11-4.87,26.69-6.13,34.81-6.13,8.66,0,17.13,1.98,22.72,8.66,8.3-5.59,18.04-8.66,30.84-8.66,18.76,0,31.2,7.57,31.2,33.36v55h-12.98v-54.64c0-17.85-7.75-21.28-18.58-21.28-10.1,0-17.49,2.34-23.44,6.49,1.08,4.15,1.8,9.02,1.8,15.15v54.28h-13.17v-54.64c0-18.39-7.57-21.28-19.66-21.28-7.03,0-15.33,1.44-20.38,3.43v72.5h-13.17V57.92Z"/>
    <path class="cls-2" d="m611.96,101.93h-59.33v.72c0,18.4,10.64,26.51,28.67,26.51,10.1,0,20.74-2.52,27.23-5.95l1.98,12.44c-8.48,3.79-18.76,5.95-29.4,5.95-27.77,0-41.84-13.89-41.84-44.72,0-25.07,9.2-45.09,37.69-45.09,22.9,0,36.43,12.8,36.43,38.05,0,3.61-.36,8.29-1.44,12.08Zm-59.33-11.18h48.15v-1.08c0-18.58-9.38-26.15-24.17-26.15s-23.99,7.39-23.99,26.15v1.08Z"/>
  </g>
</svg>