<svg height="144" viewBox="79 203 110.6 144" width="110.6" xmlns="http://www.w3.org/2000/svg"><g fill="none"><g fill="#3eae2b"><path d="m114.8 205.6-35.8 40.5 8.7 10.1 47-53.2h-14.1c-2.2 0-4.3.9-5.8 2.6z"/><path d="m142.3 205.6-49.7 56.2 8.7 10.1 60.9-68.9h-14.1c-2.2 0-4.4.9-5.8 2.6z"/><path d="m189.6 203h-14c-2.2 0-4.4 1-5.9 2.6l-63.6 72 57.4 66.7c1.5 1.7 3.6 2.7 5.9 2.7h13.8l-59.7-69.3z"/></g><path d="m128.9 347-49.9-57.9v20.2l30.2 35c1.5 1.7 3.6 2.7 5.9 2.7z" fill="#0068c7"/><path d="m156.1 347-77.1-89.5v20.2l57.4 66.6c1.5 1.7 3.6 2.7 5.9 2.7z" fill="#0068c7"/></g></svg>