<?xml version="1.0" encoding="utf-8"?>
<!-- Generator: Adobe Illustrator 25.4.1, SVG Export Plug-In . SVG Version: 6.00 Build 0)  -->
<svg version="1.1" xmlns="http://www.w3.org/2000/svg" xmlns:xlink="http://www.w3.org/1999/xlink" x="0px" y="0px"
	 viewBox="0 0 196 196" style="enable-background:new 0 0 196 196;" xml:space="preserve">
<style type="text/css">
	.st0{fill:#09A94E;}
	.st1{fill:#00549B;}
	.st2{display:none;}
	.st3{display:inline;fill:#FFFFFF;}
</style>
<g id="Layer_1">
</g>
<g id="Layer_2">
</g>
<g id="Layer_3">
	<g>
		<path class="st0" d="M15.5,101.2L6,110.7c-2.8,2.8-2.8,7.4,0,10.2c2.8,2.8,7.4,2.8,10.2,0c0,0,0,0,0,0l9.5-9.5L15.5,101.2z"/>
		<path class="st0" d="M180.5,94.8l9.5-9.5c2.8-2.8,2.8-7.4,0-10.2c-2.8-2.8-7.4-2.8-10.2,0c0,0,0,0,0,0l-9.5,9.5L180.5,94.8z"/>
		<path class="st1" d="M66.4,145.8l44.1,44.1c2.8,2.8,7.4,2.8,10.2,0c2.8-2.8,2.8-7.4,0-10.2c0,0,0,0,0,0l-44.1-44.1L66.4,145.8z"/>
		<path class="st1" d="M129.5,50.2L85.4,6.1c-2.8-2.8-7.4-2.8-10.2,0c-2.8,2.8-2.8,7.4,0,10.2c0,0,0,0,0,0l44.1,44.1L129.5,50.2z"/>
		
			<rect x="56.1" y="26.2" transform="matrix(0.7071 0.7071 -0.7071 0.7071 63.3492 -26.2289)" class="st0" width="14.4" height="74.3"/>
		
			<rect x="125.2" y="95.3" transform="matrix(0.7071 0.7071 -0.7071 0.7071 132.4076 -54.8339)" class="st0" width="14.4" height="74.3"/>
		
			<rect x="90.5" y="60.6" transform="matrix(-0.7071 0.7071 -0.7071 -0.7071 235.8723 97.7284)" class="st1" width="14.4" height="74.3"/>
		<path class="st0" d="M130.1,31.2C130.1,31.2,130.1,31.2,130.1,31.2c3.2,3.2,5,7.6,5,12.2c0,4.6-1.8,9-5,12.2l-29,29l10.2,10.2
			l26.3-26.3c0.1-0.1,0.2-0.3,0.4-0.4l2.4-2.4c6-6,9.2-13.9,9.2-22.4S146.3,27,140.3,21c-6-6-13.9-9.2-22.4-9.2
			c-5.8,0-11.3,1.5-16.1,4.4L112.7,27C118.6,25.1,125.4,26.5,130.1,31.2z"/>
		<path class="st1" d="M31.3,65.9C31.3,65.9,31.3,65.9,31.3,65.9c-3.2,3.2-5,7.6-5,12.2c0,4.6,1.8,9,5,12.2l29,29l-10.2,10.2
			l-26.3-26.3c-0.1-0.1-0.2-0.3-0.4-0.4l-2.4-2.4c-6-6-9.2-13.9-9.2-22.4s3.3-16.4,9.2-22.4c6-6,13.9-9.2,22.4-9.2
			c5.8,0,11.3,1.5,16.1,4.4L48.7,61.7C42.8,59.8,36,61.2,31.3,65.9z"/>
		<path class="st1" d="M164.8,130.3C164.8,130.3,164.8,130.3,164.8,130.3c3.2-3.2,5-7.6,5-12.2c0-4.6-1.8-9-5-12.2l-29-29L146,66.7
			l26.3,26.3c0.1,0.1,0.2,0.3,0.4,0.4l2.4,2.4c6,6,9.2,13.9,9.2,22.4s-3.3,16.4-9.2,22.4c-6,6-13.9,9.2-22.4,9.2
			c-5.8,0-11.3-1.5-16.1-4.4l10.8-10.8C153.3,136.4,160.1,135,164.8,130.3z"/>
		<path class="st0" d="M65.8,164.8c-3.2-3.2-5-7.6-5-12.2s1.8-9,5-12.2l28.9-28.9l-10.2-10.2l-26.2,26.2c-0.1,0.1-0.3,0.3-0.4,0.4
			l-2.4,2.4c-6,6-9.2,13.9-9.2,22.4c0,8.5,3.3,16.4,9.2,22.4c0,0,0,0,0,0c6,6,13.9,9.2,22.4,9.2c5.7,0,11.2-1.5,16-4.3L83.1,169
			C77.2,170.8,70.5,169.4,65.8,164.8z"/>
	</g>
</g>
<g id="Layer_4" class="st2">
	<path class="st3" d="M-349.4-145.1c8.4,0,16.4,3.3,22.4,9.3c6,6,9.3,13.9,9.3,22.4c0,8.4-3.3,16.4-9.3,22.4c-6,6-13.9,9.3-22.4,9.3
		h-3.3c-0.2,0-0.4,0-0.5,0l-101.6,0c-4.6,0-8.9,1.8-12.2,5.1s-5.1,7.6-5.1,12.2c0,9.5,7.7,17.2,17.2,17.2l126.8,0c0,0,0,0,0,0
		c4,0,7.2,3.2,7.2,7.2c0,4-3.2,7.2-7.2,7.2l-126.8,0c0,0,0,0,0,0c-8.4,0-16.4-3.3-22.4-9.3c-6-6-9.3-13.9-9.3-22.4
		c0-8.4,3.3-16.4,9.3-22.4c6-6,13.9-9.3,22.4-9.3h3.3c0.2,0,0.4,0,0.6,0l101.6,0c4.6,0,8.9-1.8,12.2-5.1c3.3-3.3,5.1-7.6,5.1-12.2
		c0-4.6-1.8-8.9-5.1-12.2c-3.3-3.3-7.6-5.1-12.2-5.1h-126.8c-4,0-7.2-3.2-7.2-7.2c0-4,3.2-7.2,7.2-7.2L-349.4-145.1 M-349.4-149.6
		L-349.4-149.6l-126.8,0c-6.5,0-11.7,5.2-11.7,11.7c0,6.5,5.2,11.7,11.7,11.7h126.8c3.4,0,6.6,1.3,9,3.8c2.4,2.4,3.8,5.6,3.8,9
		c0,3.4-1.3,6.6-3.8,9c-2.4,2.4-5.6,3.8-9,3.8l-101.6,0c-0.3,0-0.5,0-0.7,0h-3.2c-9.6,0-18.7,3.8-25.5,10.6
		c-6.8,6.8-10.6,15.9-10.6,25.5c0,9.6,3.8,18.7,10.6,25.5c6.8,6.8,15.9,10.6,25.5,10.6l126.8,0c3.1,0,6.1-1.2,8.3-3.4
		c2.2-2.2,3.4-5.1,3.4-8.3c0-3.1-1.2-6.1-3.4-8.3c-2.2-2.2-5.1-3.4-8.3-3.4l-126.8,0c-7,0-12.7-5.7-12.7-12.7c0-3.4,1.3-6.6,3.8-9
		c2.4-2.4,5.6-3.8,9-3.8l101.6,0c0.2,0,0.5,0,0.7,0h3.2c9.6,0,18.7-3.8,25.5-10.6c6.8-6.8,10.6-15.9,10.6-25.5
		c0-9.6-3.8-18.7-10.6-25.5C-330.7-145.9-339.8-149.6-349.4-149.6L-349.4-149.6z"/>
	<path class="st3" d="M-426.6-173.4c8.4,0,16.4,3.3,22.4,9.3c6,6,9.3,13.9,9.3,22.4v3.3c0,0.2,0,0.4,0,0.5l0,101.6
		c0,4.6,1.8,8.9,5.1,12.2c3.3,3.3,7.6,5.1,12.2,5.1c9.5,0,17.2-7.7,17.2-17.2l0-126.8c0-4,3.2-7.2,7.2-7.2c4,0,7.2,3.2,7.2,7.2
		l0,126.8c0,8.4-3.3,16.4-9.3,22.4c-6,6-13.9,9.3-22.4,9.3c0,0,0,0,0,0c-8.4,0-16.4-3.3-22.4-9.3c-6-6-9.3-13.9-9.3-22.4l0-3.3
		c0-0.2,0-0.4,0-0.5l0-101.6c0-4.6-1.8-8.9-5.1-12.2c-3.3-3.3-7.6-5.1-12.2-5.1c0,0,0,0,0,0c-9.5,0-17.2,7.7-17.2,17.2l0,126.8
		c0,4-3.2,7.2-7.2,7.2c0,0,0,0,0,0c-2,0-3.8-0.8-5.1-2.1c-1.3-1.3-2.1-3.1-2.1-5.1l0-126.8c0-8.4,3.3-16.4,9.3-22.4
		C-443-170.1-435.1-173.4-426.6-173.4 M-426.6-177.9L-426.6-177.9c-9.6,0-18.7,3.8-25.5,10.6c-6.8,6.8-10.6,15.9-10.6,25.5l0,126.8
		c0,3.1,1.2,6.1,3.4,8.3c2.2,2.2,5.1,3.4,8.3,3.4c0,0,0,0,0,0c3.1,0,6.1-1.2,8.3-3.4c2.2-2.2,3.4-5.1,3.4-8.3l0-126.8
		c0-3.4,1.3-6.6,3.7-9c2.4-2.4,5.6-3.7,9-3.7c3.4,0,6.6,1.3,9,3.8c2.4,2.4,3.8,5.6,3.8,9l0,101.6c0,0.3,0,0.5,0,0.7l0,3.2
		c0,9.6,3.8,18.7,10.6,25.5c6.8,6.8,15.9,10.6,25.5,10.6c9.6,0,18.7-3.8,25.5-10.6c6.8-6.8,10.6-15.9,10.6-25.5l0-126.8
		c0-6.5-5.2-11.7-11.7-11.7c-6.5,0-11.7,5.2-11.7,11.7l0,126.8c0,7-5.7,12.7-12.7,12.7c-3.4,0-6.6-1.3-9-3.8c-2.4-2.4-3.8-5.6-3.8-9
		l0-101.6c0-0.2,0-0.5,0-0.7v-3.2c0-9.6-3.8-18.7-10.6-25.5C-407.9-174.1-417-177.9-426.6-177.9L-426.6-177.9z"/>
</g>
</svg>
